<?xml version="1.0"?>
<svg xmlns="http://www.w3.org/2000/svg" height="512px" viewBox="0 -16 512 512" width="512px"><path d="m396 60c5.519531 0 10-4.480469 10-10s-4.480469-10-10-10-10 4.480469-10 10 4.480469 10 10 10zm0 0" fill="#FFDA44"/><path d="m482 0h-452c-16.542969 0-30 13.457031-30 30v320c0 16.542969 13.457031 29.988281 30 29.988281h163.632812c-6.804687 40.105469-18.167968 34.878907-31.363281 40.011719h-6.269531c-16.542969 0-30 13.457031-30 30v20c0 5.523438 4.476562 10 10 10h240c5.523438 0 10-4.476562 10-10v-20c0-16.542969-13.457031-30-30-30h-6.269531c-11.488281-4.46875-24.335938 1.414062-31.363281-40h163.632812c16.542969 0 30-13.457031 30-30v-320c0-16.542969-13.457031-30-30-30zm-452 20h452c5.515625 0 10 4.484375 10 10v290h-472v-290c0-5.515625 4.484375-10 10-10zm336 430v10h-220v-10c0-5.515625 4.484375-10 10-10h200c5.515625 0 10 4.484375 10 10zm-54.765625-30h-110.46875c7.808594-11.167969 10.9375-25.675781 13.160156-40h84.148438c2.222656 14.324219 5.351562 28.832031 13.160156 40zm170.765625-60h-452c-5.515625 0-10-4.484375-10-10v-10h472v10c0 5.515625-4.484375 10-10 10zm0 0" fill="#FFDA44"/><path d="m288.929688 162.929688-42.929688 42.929687-12.929688-12.929687c-3.90625-3.90625-10.234374-3.90625-14.140624 0s-3.90625 10.234374 0 14.140624l20 20c1.953124 1.953126 4.511718 2.929688 7.070312 2.929688s5.117188-.976562 7.070312-2.929688l50-50c3.90625-3.902343 3.90625-10.234374 0-14.140624s-10.234374-3.90625-14.140624 0zm0 0" fill="#FFDA44"/><path d="m256 90c-55.140625 0-100 44.859375-100 100s44.859375 100 100 100 100-44.859375 100-100-44.859375-100-100-100zm0 180c-44.113281 0-80-35.886719-80-80s35.886719-80 80-80 80 35.886719 80 80-35.886719 80-80 80zm0 0" fill="#FFDA44"/><path d="m116 60h240c5.523438 0 10-4.476562 10-10s-4.476562-10-10-10h-240c-5.523438 0-10 4.476562-10 10s4.476562 10 10 10zm0 0" fill="#FFDA44"/></svg>
